<svg width="32" height="32" viewBox="0 0 32 32" fill="none" xmlns="http://www.w3.org/2000/svg">
<path d="M9.39328 4.3867C8.94673 4.13162 8.44103 3.99828 7.92676 4.00002C7.4125 4.00175 6.90771 4.13851 6.46289 4.3966C6.01808 4.65469 5.64883 5.02506 5.3921 5.47066C5.13538 5.91626 5.00017 6.42147 5 6.93574V25.3693C5.00017 25.8836 5.13538 26.3888 5.3921 26.8344C5.64883 27.28 6.01808 27.6504 6.46289 27.9085C6.90771 28.1665 7.4125 28.3033 7.92676 28.305C8.44103 28.3068 8.94673 28.1734 9.39328 27.9184L25.5216 18.7001C25.9707 18.4431 26.344 18.0721 26.6036 17.6244C26.8633 17.1768 27 16.6685 27 16.1511C27 15.6336 26.8633 15.1253 26.6036 14.6777C26.344 14.2301 25.9707 13.859 25.5216 13.602L9.39328 4.3867Z" fill="black"/>
</svg>
